<?xml version="1.0" encoding="UTF-8"?>
<!DOCTYPE svg PUBLIC "-//W3C//DTD SVG 1.1//EN" "http://www.w3.org/Graphics/SVG/1.1/DTD/svg11.dtd">
<svg xmlns="http://www.w3.org/2000/svg" version="1.1" width="460px" height="132px" style="shape-rendering:geometricPrecision; text-rendering:geometricPrecision; image-rendering:optimizeQuality; fill-rule:evenodd; clip-rule:evenodd" xmlns:xlink="http://www.w3.org/1999/xlink">
<g><path style="opacity:1" fill="#fefefe" d="M -0.5,-0.5 C 152.833,-0.5 306.167,-0.5 459.5,-0.5C 459.5,43.5 459.5,87.5 459.5,131.5C 306.167,131.5 152.833,131.5 -0.5,131.5C -0.5,87.5 -0.5,43.5 -0.5,-0.5 Z"/></g>
<g><path style="opacity:1" fill="#ffde5c" d="M 165.5,36.5 C 167.604,36.2011 169.604,36.5344 171.5,37.5C 170.833,38.1667 170.167,38.8333 169.5,39.5C 173.007,41.4607 174.34,44.4607 173.5,48.5C 168.896,49.6214 166.063,47.9547 165,43.5C 154.086,53.8501 145.253,65.6834 138.5,79C 134.74,80.1762 131.907,79.0096 130,75.5C 128.204,71.3173 126.871,66.984 126,62.5C 122.823,67.3614 120.823,72.6948 120,78.5C 119.439,79.0219 118.772,79.3552 118,79.5C 116.056,78.5606 114.389,77.2273 113,75.5C 112.5,64.505 112.333,53.505 112.5,42.5C 113.873,42.3433 115.207,42.51 116.5,43C 117.667,44.8333 118.833,46.6667 120,48.5C 120.333,53.1667 120.667,57.8333 121,62.5C 126.687,47.6728 131.354,48.0061 135,63.5C 142.916,51.8178 153.083,42.8178 165.5,36.5 Z"/></g>
<g><path style="opacity:1" fill="#ffde5d" d="M 317.5,35.5 C 322.068,35.0826 323.568,37.0826 322,41.5C 319.209,46.6345 315.042,49.9679 309.5,51.5C 311.596,45.876 314.263,40.5427 317.5,35.5 Z"/></g>
<g><path style="opacity:1" fill="#ffde5c" d="M 263.5,40.5 C 269.833,39.5 272.5,42.1667 271.5,48.5C 265.167,49.5 262.5,46.8333 263.5,40.5 Z"/></g>
<g><path style="opacity:1" fill="#ffde5e" d="M 330.5,41.5 C 333.809,42.2421 336.643,43.9088 339,46.5C 340.332,52.4792 341.665,58.4792 343,64.5C 344.594,63.2841 346.094,61.9507 347.5,60.5C 348.833,61.1667 349.833,62.1667 350.5,63.5C 345.197,73.0019 337.197,77.5019 326.5,77C 323.689,75.3563 321.356,73.1897 319.5,70.5C 316.823,72.1649 314.823,71.6649 313.5,69C 317.62,63.8775 322.12,59.0442 327,54.5C 329.863,50.6202 331.03,46.2868 330.5,41.5 Z"/></g>
<g><path style="opacity:1" fill="#ffde5e" d="M 253.5,73.5 C 253.762,72.0222 253.429,70.6888 252.5,69.5C 251.893,69.6236 251.56,69.9569 251.5,70.5C 248.243,75.7496 243.577,79.083 237.5,80.5C 235.399,80.3684 233.899,79.3684 233,77.5C 232.827,73.4592 232.327,69.4592 231.5,65.5C 230.522,65.9767 229.689,66.6433 229,67.5C 227.607,71.2857 225.941,74.9523 224,78.5C 221.392,79.9732 219.225,79.4732 217.5,77C 219.384,73.2418 220.051,69.4085 219.5,65.5C 215.187,68.9094 211.187,72.7427 207.5,77C 204.181,79.5055 200.514,80.5055 196.5,80C 193.997,75.5485 192.831,70.7151 193,65.5C 189.917,69.4004 187.584,73.7337 186,78.5C 183.392,79.9732 181.225,79.4732 179.5,77C 181.398,72.9922 182.232,68.8255 182,64.5C 176.958,68.3761 172.458,72.8761 168.5,78C 158.017,79.1976 153.85,74.6976 156,64.5C 157.579,58.9969 160.413,54.3302 164.5,50.5C 166.89,51.8908 168.557,53.8908 169.5,56.5C 165.869,60.8913 164.369,65.8913 165,71.5C 171.136,66.1773 177.636,61.5106 184.5,57.5C 186.425,57.5904 187.592,58.5904 188,60.5C 192.938,54.0168 197.604,54.0168 202,60.5C 201.581,64.8551 201.747,69.1885 202.5,73.5C 207.893,68.1018 213.56,63.1018 219.5,58.5C 222.523,56.8386 224.857,57.5053 226.5,60.5C 230.676,54.4242 235.176,54.0909 240,59.5C 239.985,64.2219 240.152,68.8885 240.5,73.5C 245.832,69.6652 250.665,65.3318 255,60.5C 256.296,56.2332 258.796,52.8999 262.5,50.5C 264.825,51.652 266.158,53.4853 266.5,56C 265.146,59.877 263.646,63.7104 262,67.5C 261.219,68.9437 261.386,70.277 262.5,71.5C 270.601,65.429 277.935,58.5957 284.5,51C 288.878,47.513 293.045,47.6797 297,51.5C 298.202,55.7929 297.035,59.2929 293.5,62C 290.222,63.6475 287.055,65.4808 284,67.5C 283.28,69.1124 283.446,70.6124 284.5,72C 287.419,72.5516 290.086,71.8849 292.5,70C 296.466,67.036 300.133,63.7026 303.5,60C 304.448,59.5172 305.448,59.3505 306.5,59.5C 306.702,61.9892 306.202,64.3225 305,66.5C 301.088,71.0833 296.588,74.9166 291.5,78C 283.597,78.9277 278.097,75.761 275,68.5C 272.518,71.9493 269.685,75.116 266.5,78C 261.121,79.302 256.788,77.802 253.5,73.5 Z"/></g>
<g><path style="opacity:1" fill="#fff9e7" d="M 290.5,53.5 C 292.028,53.5173 292.528,54.184 292,55.5C 286.608,59.5433 286.108,58.8766 290.5,53.5 Z"/></g>
<g><path style="opacity:1" fill="#fffcf3" d="M 333.5,56.5 C 335.978,59.5298 336.145,62.8632 334,66.5C 331.997,68.9221 329.497,69.7554 326.5,69C 324.983,66.2394 325.816,64.4061 329,63.5C 330.75,61.2657 332.25,58.9324 333.5,56.5 Z"/></g>
<g><path style="opacity:1" fill="#ffeead" d="M 251.5,70.5 C 251.56,69.9569 251.893,69.6236 252.5,69.5C 253.429,70.6888 253.762,72.0222 253.5,73.5C 252.833,72.5 252.167,71.5 251.5,70.5 Z"/></g>
</svg>
