<?xml version="1.0" encoding="UTF-8"?>
<!DOCTYPE svg PUBLIC "-//W3C//DTD SVG 1.1//EN" "http://www.w3.org/Graphics/SVG/1.1/DTD/svg11.dtd">
<svg xmlns="http://www.w3.org/2000/svg" version="1.1" width="488px" height="194px" style="shape-rendering:geometricPrecision; text-rendering:geometricPrecision; image-rendering:optimizeQuality; fill-rule:evenodd; clip-rule:evenodd" xmlns:xlink="http://www.w3.org/1999/xlink">
<g><path style="opacity:1" fill="#fefefe" d="M -0.5,-0.5 C 162.167,-0.5 324.833,-0.5 487.5,-0.5C 487.5,64.1667 487.5,128.833 487.5,193.5C 324.833,193.5 162.167,193.5 -0.5,193.5C -0.5,128.833 -0.5,64.1667 -0.5,-0.5 Z"/></g>
<g><path style="opacity:1" fill="#ffde5b" d="M 371.5,53.5 C 378,52.4987 380.5,55.1653 379,61.5C 374.999,69.3501 368.832,74.3501 360.5,76.5C 360.343,75.1266 360.51,73.7932 361,72.5C 364.527,66.1077 368.027,59.7744 371.5,53.5 Z"/></g>
<g><path style="opacity:1" fill="#ffde5c" d="M 150.5,54.5 C 153.32,54.2475 155.986,54.7475 158.5,56C 157.5,57 156.5,58 155.5,59C 161.575,61.9115 163.242,66.2448 160.5,72C 154.084,73.3793 150.251,70.8793 149,64.5C 136.151,77.3416 124.817,91.3416 115,106.5C 112.965,109.561 111.799,112.895 111.5,116.5C 106.235,117.429 101.735,116.096 98,112.5C 95.2249,105.734 93.2249,98.7345 92,91.5C 87.4147,99.2555 84.4147,107.589 83,116.5C 81.6124,117.554 80.1124,117.72 78.5,117C 76.6667,115.167 74.8333,113.333 73,111.5C 71.5143,95.861 71.1809,80.1943 72,64.5C 73.1332,62.7888 74.6332,62.2888 76.5,63C 79.2728,65.3834 81.4395,68.2167 83,71.5C 83.3333,79.1667 83.6667,86.8333 84,94.5C 86.3333,89.8333 88.6667,85.1667 91,80.5C 93.3788,75.4947 96.3788,75.1613 100,79.5C 101.368,84.3243 103.035,88.991 105,93.5C 117.02,76.6329 132.187,63.6329 150.5,54.5 Z"/></g>
<g><path style="opacity:1" fill="#ffdf61" d="M 294.5,59.5 C 303.185,59.3649 306.518,63.5316 304.5,72C 294.185,73.1972 290.852,69.0306 294.5,59.5 Z"/></g>
<g><path style="opacity:1" fill="#ffde5c" d="M 408.5,90.5 C 408.337,92.8568 408.503,95.1902 409,97.5C 409.717,96.9558 410.217,96.2891 410.5,95.5C 412.771,93.7341 414.937,91.7341 417,89.5C 418.563,90.7252 419.73,92.2252 420.5,94C 414.902,103.603 406.902,110.269 396.5,114C 387.618,115.892 380.952,112.892 376.5,105C 373.54,105.32 370.54,105.32 367.5,105C 366.643,104.311 365.977,103.478 365.5,102.5C 372.794,95.0364 379.961,87.3697 387,79.5C 389.946,74.2851 391.612,68.6185 392,62.5C 392.561,61.9781 393.228,61.6448 394,61.5C 398.236,63.7297 401.903,66.7297 405,70.5C 405.278,77.3639 406.445,84.0305 408.5,90.5 Z"/></g>
<g><path style="opacity:1" fill="#ffde5b" d="M 329.5,72.5 C 339.713,71.2107 343.88,75.5441 342,85.5C 340.551,88.616 338.384,91.116 335.5,93C 331.34,94.9125 327.34,97.0791 323.5,99.5C 322.22,101.702 322.22,103.868 323.5,106C 326.928,106.701 330.262,106.368 333.5,105C 339.426,101.079 344.759,96.412 349.5,91C 351.441,89.0972 353.774,88.2639 356.5,88.5C 357.021,94.276 355.021,98.9427 350.5,102.5C 344.729,108.796 337.896,113.463 330,116.5C 320.48,115.095 313.813,110.095 310,101.5C 305.867,106.634 301.367,111.468 296.5,116C 289.725,116.536 283.892,114.369 279,109.5C 278.027,107.608 277.36,105.608 277,103.5C 272.801,108.034 268.301,112.201 263.5,116C 259.682,117.944 255.682,118.611 251.5,118C 249.513,116.681 248.346,114.848 248,112.5C 247.829,107.136 247.329,101.802 246.5,96.5C 242.321,101.517 239.154,107.184 237,113.5C 234.447,116.265 231.281,117.098 227.5,116C 226.941,115.275 226.608,114.442 226.5,113.5C 227.566,109.803 228.732,106.136 230,102.5C 230.808,100.421 230.641,98.4213 229.5,96.5C 228.18,98.2701 226.68,98.6034 225,97.5C 219.292,106.881 211.459,113.715 201.5,118C 198.044,119.123 195.21,118.29 193,115.5C 191.96,109.217 191.127,102.884 190.5,96.5C 189.522,96.9767 188.689,97.6433 188,98.5C 185.151,104.198 182.318,109.864 179.5,115.5C 176.628,116.783 173.795,116.783 171,115.5C 171.62,110.117 172.787,104.784 174.5,99.5C 174.167,98.5 173.833,97.5 173.5,96.5C 172.18,98.2701 170.68,98.6034 169,97.5C 164.544,103.625 159.711,109.458 154.5,115C 147.866,117.021 141.866,115.688 136.5,111C 133.92,104.503 134.086,98.0028 137,91.5C 139,87.5 141,83.5 143,79.5C 145.4,75.3127 148.4,74.646 152,77.5C 153.64,79.579 154.806,81.9124 155.5,84.5C 150.414,90.9941 147.914,98.3274 148,106.5C 156.627,99.7769 165.127,92.9435 173.5,86C 177.986,83.4168 181.152,84.5835 183,89.5C 185.893,85.4343 189.726,82.7677 194.5,81.5C 198.375,82.5391 201.208,84.8724 203,88.5C 202.966,95.1818 202.466,101.848 201.5,108.5C 202.873,108.657 204.207,108.49 205.5,108C 211.5,103.333 216.833,98 221.5,92C 222.449,91.3828 223.282,91.5494 224,92.5C 226.344,87.4541 230.177,84.9541 235.5,85C 237.049,86.214 238.215,87.714 239,89.5C 241.893,85.4343 245.726,82.7677 250.5,81.5C 254.375,82.5391 257.208,84.8724 259,88.5C 258.966,95.1818 258.466,101.848 257.5,108.5C 258.873,108.657 260.207,108.49 261.5,108C 267.5,103.333 272.833,98 277.5,92C 278.449,91.3828 279.282,91.5494 280,92.5C 282.016,86.2971 285.183,80.7971 289.5,76C 294.54,76.0232 297.54,78.6899 298.5,84C 295.332,89.1719 292.832,94.6719 291,100.5C 290.192,102.579 290.359,104.579 291.5,106.5C 300.861,99.9684 309.028,92.3017 316,83.5C 319.819,78.8329 324.319,75.1663 329.5,72.5 Z"/></g>
<g><path style="opacity:1" fill="#fffbee" d="M 333.5,79.5 C 335.355,79.272 336.188,79.9387 336,81.5C 327.323,89.8054 326.49,89.1387 333.5,79.5 Z"/></g>
<g><path style="opacity:1" fill="#fffdf9" d="M 396.5,83.5 C 399.215,88.7782 399.048,94.1116 396,99.5C 392.912,102.097 389.412,102.931 385.5,102C 383.993,101.163 383.493,99.9961 384,98.5C 389.132,94.2106 393.299,89.2106 396.5,83.5 Z"/></g>
<g><path style="opacity:1" fill="#ffefaf" d="M 408.5,90.5 C 409.167,92.1667 409.833,93.8333 410.5,95.5C 410.217,96.2891 409.717,96.9558 409,97.5C 408.503,95.1902 408.337,92.8568 408.5,90.5 Z"/></g>
<g><path style="opacity:1" fill="#b6b6b6" d="M 162.5,127.5 C 162.167,127.5 161.833,127.5 161.5,127.5C 161.611,126.883 161.944,126.383 162.5,126C 165.146,125.503 167.813,125.336 170.5,125.5C 170.762,126.978 170.429,128.311 169.5,129.5C 167.643,126.766 165.309,126.099 162.5,127.5 Z"/></g>
<g><path style="opacity:1" fill="#b1b1b1" d="M 196.5,126.5 C 195.833,126.5 195.5,126.833 195.5,127.5C 193.833,126.167 192.167,126.167 190.5,127.5C 190.5,127.167 190.5,126.833 190.5,126.5C 192.5,125.167 194.5,125.167 196.5,126.5 Z"/></g>
<g><path style="opacity:1" fill="#747474" d="M 87.5,126.5 C 89.7224,126.559 90.7224,127.725 90.5,130C 90.6134,131.699 89.9468,132.866 88.5,133.5C 87.2749,132.848 86.6083,131.681 86.5,130C 86.5143,128.615 86.8476,127.449 87.5,126.5 Z"/></g>
<g><path style="opacity:1" fill="#7b7b7b" d="M 321.5,126.5 C 325.483,128.368 325.483,130.534 321.5,133C 322.448,133.483 323.448,133.649 324.5,133.5C 325.315,137.833 323.648,140.166 319.5,140.5C 320.824,137.864 320.824,135.198 319.5,132.5C 320.05,130.343 320.717,128.343 321.5,126.5 Z"/></g>
<g><path style="opacity:1" fill="#b3b3b3" d="M 399.5,127.5 C 399.5,127.167 399.5,126.833 399.5,126.5C 401.628,125.371 403.961,125.204 406.5,126C 407.747,127.494 407.747,128.994 406.5,130.5C 405.117,126.969 402.784,125.969 399.5,127.5 Z"/></g>
<g><path style="opacity:1" fill="#c1c1c1" d="M 87.5,126.5 C 86.8476,127.449 86.5143,128.615 86.5,130C 86.6083,131.681 87.2749,132.848 88.5,133.5C 87.4324,134.434 86.099,134.768 84.5,134.5C 84.1412,136.766 84.8078,138.599 86.5,140C 85.552,140.483 84.552,140.649 83.5,140.5C 83.5,135.833 83.5,131.167 83.5,126.5C 82.5,126.5 81.5,126.5 80.5,126.5C 80.5,131.167 80.5,135.833 80.5,140.5C 79.8103,135.767 79.1437,130.934 78.5,126C 81.6965,125.195 84.6965,125.362 87.5,126.5 Z"/></g>
<g><path style="opacity:1" fill="#6f6f6f" d="M 106.5,126.5 C 107.5,126.5 108.5,126.5 109.5,126.5C 109.5,131.167 109.5,135.833 109.5,140.5C 108.5,140.5 107.5,140.5 106.5,140.5C 106.5,135.833 106.5,131.167 106.5,126.5 Z"/></g>
<g><path style="opacity:1" fill="#777777" d="M 132.5,126.5 C 133.833,126.5 135.167,126.5 136.5,126.5C 136.5,131.167 136.5,135.833 136.5,140.5C 135.167,140.5 133.833,140.5 132.5,140.5C 132.5,135.833 132.5,131.167 132.5,126.5 Z"/></g>
<g><path style="opacity:1" fill="#d5d5d5" d="M 220.5,126.5 C 218.801,126.34 217.134,126.506 215.5,127C 216.416,127.278 217.082,127.778 217.5,128.5C 216.676,132.312 216.176,136.312 216,140.5C 214.612,135.628 214.112,130.628 214.5,125.5C 216.735,125.205 218.735,125.539 220.5,126.5 Z"/></g>
<g><path style="opacity:1" fill="#b9b9b9" d="M 226.5,136.5 C 225.5,136.167 224.833,135.5 224.5,134.5C 225.817,131.77 225.817,128.937 224.5,126C 225.5,125.333 226.5,125.333 227.5,126C 226.544,129.394 226.211,132.894 226.5,136.5 Z"/></g>
<g><path style="opacity:1" fill="#afafaf" d="M 274.5,140.5 C 274.5,135.833 274.5,131.167 274.5,126.5C 273.5,126.5 272.5,126.5 271.5,126.5C 271.5,131.167 271.5,135.833 271.5,140.5C 270.81,135.767 270.144,130.934 269.5,126C 271.833,125.333 274.167,125.333 276.5,126C 275.533,130.401 275.2,134.901 275.5,139.5C 277.39,139.703 278.89,139.037 280,137.5C 280.483,138.448 280.649,139.448 280.5,140.5C 278.5,140.5 276.5,140.5 274.5,140.5 Z"/></g>
<g><path style="opacity:1" fill="#c9c9c9" d="M 321.5,126.5 C 320.717,128.343 320.05,130.343 319.5,132.5C 320.824,135.198 320.824,137.864 319.5,140.5C 318.833,140.5 318.167,140.5 317.5,140.5C 317.5,135.833 317.5,131.167 317.5,126.5C 316.5,126.5 315.5,126.5 314.5,126.5C 314.5,131.167 314.5,135.833 314.5,140.5C 313.81,135.767 313.144,130.934 312.5,126C 315.696,125.195 318.696,125.362 321.5,126.5 Z"/></g>
<g><path style="opacity:1" fill="#afafaf" d="M 344.5,140.5 C 344.5,135.833 344.5,131.167 344.5,126.5C 343.5,126.5 342.5,126.5 341.5,126.5C 341.5,131.167 341.5,135.833 341.5,140.5C 340.81,135.767 340.144,130.934 339.5,126C 341.833,125.333 344.167,125.333 346.5,126C 345.533,130.401 345.2,134.901 345.5,139.5C 347.39,139.703 348.89,139.037 350,137.5C 350.483,138.448 350.649,139.448 350.5,140.5C 348.5,140.5 346.5,140.5 344.5,140.5 Z"/></g>
<g><path style="opacity:1" fill="#717171" d="M 83.5,140.5 C 82.5,140.5 81.5,140.5 80.5,140.5C 80.5,135.833 80.5,131.167 80.5,126.5C 81.5,126.5 82.5,126.5 83.5,126.5C 83.5,131.167 83.5,135.833 83.5,140.5 Z"/></g>
<g><path style="opacity:1" fill="#757575" d="M 220.5,126.5 C 221.833,129.167 223.167,131.833 224.5,134.5C 224.833,135.5 225.5,136.167 226.5,136.5C 226.5,137.833 226.5,139.167 226.5,140.5C 225.178,140.67 224.011,140.337 223,139.5C 221.14,135.78 219.307,132.114 217.5,128.5C 217.082,127.778 216.416,127.278 215.5,127C 217.134,126.506 218.801,126.34 220.5,126.5 Z"/></g>
<g><path style="opacity:1" fill="#717171" d="M 274.5,140.5 C 273.5,140.5 272.5,140.5 271.5,140.5C 271.5,135.833 271.5,131.167 271.5,126.5C 272.5,126.5 273.5,126.5 274.5,126.5C 274.5,131.167 274.5,135.833 274.5,140.5 Z"/></g>
<g><path style="opacity:1" fill="#717171" d="M 317.5,140.5 C 316.5,140.5 315.5,140.5 314.5,140.5C 314.5,135.833 314.5,131.167 314.5,126.5C 315.5,126.5 316.5,126.5 317.5,126.5C 317.5,131.167 317.5,135.833 317.5,140.5 Z"/></g>
<g><path style="opacity:1" fill="#717171" d="M 344.5,140.5 C 343.5,140.5 342.5,140.5 341.5,140.5C 341.5,135.833 341.5,131.167 341.5,126.5C 342.5,126.5 343.5,126.5 344.5,126.5C 344.5,131.167 344.5,135.833 344.5,140.5 Z"/></g>
<g><path style="opacity:1" fill="#777777" d="M 374.5,127.5 C 375.542,126.209 376.708,126.209 378,127.5C 380,131.167 380,134.833 378,138.5C 376.867,140.211 375.367,140.711 373.5,140C 375.059,138.004 375.726,135.671 375.5,133C 375.494,130.967 375.161,129.134 374.5,127.5 Z"/></g>
<g><path style="opacity:1" fill="#797979" d="M 190.5,126.5 C 190.5,126.833 190.5,127.167 190.5,127.5C 190.203,131.767 190.536,135.934 191.5,140C 187.473,139.676 185.806,137.343 186.5,133C 185.77,129.425 187.103,127.258 190.5,126.5 Z"/></g>
<g><path style="opacity:1" fill="#797979" d="M 196.5,126.5 C 197.458,126.953 198.292,127.619 199,128.5C 199.667,131.5 199.667,134.5 199,137.5C 197.829,139.616 196.329,140.282 194.5,139.5C 195.433,135.571 195.766,131.571 195.5,127.5C 195.5,126.833 195.833,126.5 196.5,126.5 Z"/></g>
<g><path style="opacity:1" fill="#808080" d="M 368.5,126.5 C 370.176,130.636 371.176,135.136 371.5,140C 367.405,140.066 365.405,137.899 365.5,133.5C 365.695,130.782 366.695,128.449 368.5,126.5 Z"/></g>
<g><path style="opacity:1" fill="#767676" d="M 161.5,127.5 C 161.833,127.5 162.167,127.5 162.5,127.5C 162.414,128.496 162.748,129.329 163.5,130C 165.459,130.931 167.459,131.764 169.5,132.5C 170.861,134.984 170.694,137.317 169,139.5C 168.644,136.271 166.81,134.771 163.5,135C 160.592,132.93 159.926,130.43 161.5,127.5 Z"/></g>
<g><path style="opacity:1" fill="#7c7c7c" d="M 399.5,126.5 C 399.5,126.833 399.5,127.167 399.5,127.5C 399.234,131.571 399.567,135.571 400.5,139.5C 396.431,140.105 394.431,138.105 394.5,133.5C 394.48,129.846 396.147,127.512 399.5,126.5 Z"/></g>
<g><path style="opacity:1" fill="#999999" d="M 109.5,140.5 C 109.5,135.833 109.5,131.167 109.5,126.5C 108.5,126.5 107.5,126.5 106.5,126.5C 109.045,125.496 112.379,125.163 116.5,125.5C 116.558,129.701 115.558,130.201 113.5,127C 112.552,126.517 111.552,126.351 110.5,126.5C 110.201,128.604 110.534,130.604 111.5,132.5C 112.478,132.023 113.311,131.357 114,130.5C 114.667,132.5 114.667,134.5 114,136.5C 113.167,135.5 112.333,134.5 111.5,133.5C 110.832,135.969 110.165,138.302 109.5,140.5 Z"/></g>
<g><path style="opacity:1" fill="#d5d5d5" d="M 141.5,126.5 C 139.767,128.355 138.767,130.688 138.5,133.5C 137.189,135.56 137.189,137.726 138.5,140C 137.906,140.464 137.239,140.631 136.5,140.5C 136.5,135.833 136.5,131.167 136.5,126.5C 135.167,126.5 133.833,126.5 132.5,126.5C 134.906,125.203 137.906,125.203 141.5,126.5 Z"/></g>
<g><path style="opacity:1" fill="#747474" d="M 141.5,126.5 C 142.693,126.97 143.36,127.97 143.5,129.5C 143.291,130.994 142.624,132.161 141.5,133C 142.991,135.097 143.991,137.43 144.5,140C 142.888,140.72 141.388,140.554 140,139.5C 139.809,137.292 139.309,135.292 138.5,133.5C 138.767,130.688 139.767,128.355 141.5,126.5 Z"/></g>
<g><path style="opacity:1" fill="#787878" d="M 249.5,137.5 C 248.892,134.673 247.892,132.007 246.5,129.5C 246.527,126.61 247.693,125.61 250,126.5C 251.802,131.095 253.302,135.762 254.5,140.5C 252.011,140.759 250.344,139.759 249.5,137.5 Z"/></g>
<g><path style="opacity:1" fill="#d1d1d1" d="M 246.5,129.5 C 247.892,132.007 248.892,134.673 249.5,137.5C 245.736,136.038 243.736,137.038 243.5,140.5C 243.167,140 242.833,139.5 242.5,139C 243.761,135.692 245.094,132.525 246.5,129.5 Z"/></g>
<g><path style="opacity:1" fill="#787878" d="M 403.5,134.5 C 404.833,134.5 406.167,134.5 407.5,134.5C 407.5,136.5 407.5,138.5 407.5,140.5C 406.167,140.5 404.833,140.5 403.5,140.5C 403.5,138.5 403.5,136.5 403.5,134.5 Z"/></g>
<g><path style="opacity:1" fill="#7f7f7f" d="M 115.5,136.5 C 116.434,137.568 116.768,138.901 116.5,140.5C 115.127,140.657 113.793,140.49 112.5,140C 114.426,139.578 115.426,138.411 115.5,136.5 Z"/></g>
<g><path style="opacity:1" fill="#8a8a8a" d="M 160.5,136.5 C 165.195,139.025 165.195,140.358 160.5,140.5C 160.5,139.167 160.5,137.833 160.5,136.5 Z"/></g>
</svg>
